<svg width="36" height="37" viewBox="0 0 36 37" fill="none" xmlns="http://www.w3.org/2000/svg">
<path d="M35.2679 34.9603H33.6667V14.8398C33.6667 13.9032 32.7863 13.1414 31.7042 13.1414H28.1253C27.0431 13.1414 26.1628 13.9033 26.1628 14.8398V34.9603H22.097V23.9559C22.097 23.0194 21.2167 22.2575 20.1345 22.2575H16.5556C15.4734 22.2575 14.5931 23.0195 14.5931 23.9559V34.9603H10.5273V29.2612C10.5273 28.3247 9.64691 27.5628 8.56484 27.5628H4.98581C3.90367 27.5628 3.02332 28.3248 3.02332 29.2612V34.9603H1.33575C0.932552 34.9603 0.605713 35.2432 0.605713 35.5921C0.605713 35.9411 0.932552 36.2239 1.33575 36.2239H35.2679C35.6711 36.2239 35.998 35.9411 35.998 35.5921C35.998 35.2432 35.6711 34.9603 35.2679 34.9603Z" fill="#283964"/>
<path d="M33.4682 4.60592C33.4789 4.42492 33.4061 4.24087 33.2483 4.10265C33.0904 3.96443 32.8802 3.90069 32.6735 3.91004C32.6613 3.90957 32.6493 3.90845 32.6369 3.90845H28.0542C27.6358 3.90845 27.2967 4.20538 27.2967 4.5717C27.2967 4.93801 27.6358 5.23495 28.0542 5.23495H30.8838L23.3957 11.7917L20.5719 9.3191C20.4298 9.19474 20.2372 9.12484 20.0363 9.12484C19.8354 9.12484 19.6427 9.19474 19.5007 9.3191L5.88371 21.2423C5.58792 21.5013 5.58792 21.9213 5.88371 22.1804C6.03164 22.3098 6.22548 22.3745 6.41932 22.3745C6.61315 22.3745 6.80706 22.3098 6.95492 22.1802L20.0363 10.726L22.8601 13.1986C23.1559 13.4576 23.6355 13.4576 23.9314 13.1986L31.9551 6.17298V8.41543C31.9551 8.78174 32.2942 9.07868 32.7126 9.07868C33.1309 9.07868 33.4701 8.78174 33.4701 8.41543V4.63802C33.4701 4.62721 33.4688 4.61666 33.4682 4.60592Z" fill="#283964" stroke="#283964" stroke-width="0.5"/>
<path fill-rule="evenodd" clip-rule="evenodd" d="M7.21798 13.3845V12.3444C7.67806 12.3348 8.11898 12.2626 8.54072 12.1278C8.96247 11.9929 9.33492 11.7979 9.65807 11.5427C9.98123 11.2875 10.2387 10.9698 10.4304 10.5894C10.6221 10.209 10.7179 9.76842 10.7179 9.26766C10.7179 8.77653 10.6138 8.36244 10.4057 8.02539C10.1976 7.68834 9.92646 7.40185 9.59235 7.16591C9.25824 6.92998 8.88305 6.73497 8.46678 6.58089C8.05051 6.42681 7.63424 6.29199 7.21798 6.17643V3.25854C7.60138 3.25854 7.98205 3.32355 8.35998 3.45355C8.7379 3.58356 9.05284 3.77375 9.30479 4.02413L10.6358 2.81075C10.1866 2.4737 9.65533 2.22091 9.04189 2.05239C8.42844 1.88386 7.82047 1.79479 7.21798 1.78516V0.831787H6.33067V1.81405C5.89249 1.84294 5.46801 1.9272 5.05722 2.06683C4.64643 2.20647 4.27946 2.39666 3.9563 2.63741C3.63314 2.87816 3.37572 3.16947 3.18401 3.51133C2.99231 3.8532 2.89646 4.2408 2.89646 4.67415C2.89646 5.13639 2.9841 5.52881 3.15937 5.85142C3.33464 6.17402 3.57837 6.45089 3.89057 6.68201C4.20277 6.91313 4.56701 7.10332 4.98328 7.25258C5.39954 7.40185 5.84868 7.53426 6.33067 7.64982V10.8566C5.9144 10.847 5.4817 10.7435 5.03257 10.546C4.58344 10.3486 4.21099 10.0958 3.91522 9.78768L2.46924 11.0011C2.99505 11.444 3.58933 11.7739 4.25207 11.9905C4.91481 12.2072 5.60768 12.3252 6.33067 12.3444V13.3845H7.21798ZM6.33162 5.97396C5.91535 5.86803 5.56755 5.71154 5.28821 5.5045C5.00888 5.29746 4.86921 4.9917 4.86921 4.58724C4.86921 4.16352 5.01709 3.84573 5.31286 3.63387C5.60863 3.42202 5.94822 3.29683 6.33162 3.25831V5.97396ZM7.21805 7.88085V10.8565C7.67814 10.8373 8.04785 10.6928 8.32719 10.4232C8.60652 10.1535 8.74619 9.80204 8.74619 9.36869C8.74619 8.94497 8.60105 8.62477 8.31076 8.4081C8.02046 8.19142 7.65623 8.01567 7.21805 7.88085Z" fill="#283964"/>
<path d="M7.21798 12.3444L7.21275 12.0945L6.96798 12.0996V12.3444H7.21798ZM7.21798 13.3845V13.6345H7.46798V13.3845H7.21798ZM9.65807 11.5427L9.50313 11.3465L9.65807 11.5427ZM10.4304 10.5894L10.6536 10.7019L10.4304 10.5894ZM10.4057 8.02539L10.193 8.15674L10.4057 8.02539ZM7.21798 6.17643H6.96798V6.36648L7.1511 6.41732L7.21798 6.17643ZM7.21798 3.25854V3.00854H6.96798V3.25854H7.21798ZM8.35998 3.45355L8.4413 3.21715L8.35998 3.45355ZM9.30479 4.02413L9.12857 4.20146L9.29736 4.3692L9.47322 4.20888L9.30479 4.02413ZM10.6358 2.81075L10.8042 2.9955L11.0273 2.79205L10.7858 2.61079L10.6358 2.81075ZM9.04189 2.05239L9.10811 1.81132V1.81132L9.04189 2.05239ZM7.21798 1.78516H6.96798V2.03119L7.21398 2.03512L7.21798 1.78516ZM7.21798 0.831787H7.46798V0.581787H7.21798V0.831787ZM6.33067 0.831787V0.581787H6.08067V0.831787H6.33067ZM6.33067 1.81405L6.34712 2.0635L6.58067 2.04811V1.81405H6.33067ZM5.05722 2.06683L4.97676 1.83013L5.05722 2.06683ZM3.9563 2.63741L3.80694 2.43693L3.9563 2.63741ZM3.18401 3.51133L2.96596 3.38906H2.96596L3.18401 3.51133ZM3.15937 5.85142L2.93969 5.97077H2.93969L3.15937 5.85142ZM3.89057 6.68201L3.74182 6.88294H3.74182L3.89057 6.68201ZM6.33067 7.64982H6.58067V7.45267L6.38896 7.40671L6.33067 7.64982ZM6.33067 10.8566L6.32489 11.1065L6.58067 11.1125V10.8566H6.33067ZM5.03257 10.546L5.13317 10.3172H5.13317L5.03257 10.546ZM3.91522 9.78768L4.09559 9.61456L3.93366 9.44585L3.75452 9.59617L3.91522 9.78768ZM2.46924 11.0011L2.30854 10.8095L2.08077 11.0007L2.30816 11.1923L2.46924 11.0011ZM4.25207 11.9905L4.17438 12.2282L4.25207 11.9905ZM6.33067 12.3444H6.58067V12.101L6.33733 12.0945L6.33067 12.3444ZM6.33067 13.3845H6.08067V13.6345H6.33067V13.3845ZM5.28821 5.5045L5.43708 5.30366H5.43708L5.28821 5.5045ZM6.33162 5.97396L6.26997 6.21624L6.58162 6.29555V5.97396H6.33162ZM5.31286 3.63387L5.16728 3.43064H5.16728L5.31286 3.63387ZM6.33162 3.25831H6.58162V2.98193L6.30663 3.00956L6.33162 3.25831ZM7.21805 10.8565H6.96805V11.1172L7.22851 11.1063L7.21805 10.8565ZM7.21805 7.88085L7.29157 7.64191L6.96805 7.54237V7.88085H7.21805ZM8.31076 8.4081L8.46029 8.20775L8.31076 8.4081ZM6.96798 12.3444V13.3845H7.46798V12.3444H6.96798ZM8.4646 11.8896C8.06668 12.0168 7.64971 12.0853 7.21275 12.0945L7.22321 12.5944C7.70642 12.5843 8.17127 12.5083 8.61685 12.3659L8.4646 11.8896ZM9.50313 11.3465C9.20524 11.5818 8.85993 11.7633 8.4646 11.8896L8.61685 12.3659C9.065 12.2226 9.46459 12.0141 9.81301 11.7389L9.50313 11.3465ZM10.2071 10.4769C10.0312 10.8259 9.7967 11.1147 9.50313 11.3465L9.81301 11.7389C10.1658 11.4604 10.4461 11.1137 10.6536 10.7019L10.2071 10.4769ZM10.4679 9.26766C10.4679 9.73618 10.3784 10.137 10.2071 10.4769L10.6536 10.7019C10.8657 10.281 10.9679 9.80066 10.9679 9.26766H10.4679ZM10.193 8.15674C10.3715 8.44584 10.4679 8.81183 10.4679 9.26766H10.9679C10.9679 8.74122 10.8562 8.27904 10.6184 7.89404L10.193 8.15674ZM9.44814 7.37013C9.75565 7.58728 10.0031 7.84928 10.193 8.15674L10.6184 7.89404C10.392 7.5274 10.0973 7.21641 9.73656 6.9617L9.44814 7.37013ZM8.38 6.81535C8.77761 6.96252 9.13321 7.14774 9.44814 7.37013L9.73656 6.9617C9.38326 6.71221 8.98848 6.50742 8.55356 6.34644L8.38 6.81535ZM7.1511 6.41732C7.56047 6.53096 7.9701 6.66362 8.38 6.81535L8.55356 6.34644C8.13093 6.19 7.70802 6.05302 7.28485 5.93554L7.1511 6.41732ZM6.96798 3.25854V6.17643H7.46798V3.25854H6.96798ZM8.4413 3.21715C8.03832 3.07853 7.63022 3.00854 7.21798 3.00854V3.50854C7.57255 3.50854 7.92577 3.56857 8.27865 3.68996L8.4413 3.21715ZM9.48102 3.8468C9.19912 3.56666 8.85041 3.35788 8.4413 3.21715L8.27865 3.68996C8.62539 3.80923 8.90657 3.98084 9.12857 4.20146L9.48102 3.8468ZM10.4673 2.626L9.13637 3.83938L9.47322 4.20888L10.8042 2.9955L10.4673 2.626ZM8.97566 2.29346C9.56283 2.45476 10.0648 2.69484 10.4857 3.01071L10.7858 2.61079C10.3085 2.25256 9.74784 1.98706 9.10811 1.81132L8.97566 2.29346ZM7.21398 2.03512C7.7943 2.0444 8.38137 2.1302 8.97566 2.29346L9.10811 1.81132C8.47551 1.63753 7.84664 1.54517 7.22197 1.53519L7.21398 2.03512ZM6.96798 0.831787V1.78516H7.46798V0.831787H6.96798ZM6.33067 1.08179H7.21798V0.581787H6.33067V1.08179ZM6.58067 1.81405V0.831787H6.08067V1.81405H6.58067ZM5.13768 2.30353C5.52753 2.17102 5.93048 2.09097 6.34712 2.0635L6.31422 1.56459C5.85451 1.5949 5.40849 1.68338 4.97676 1.83013L5.13768 2.30353ZM4.10566 2.83789C4.40633 2.61389 4.74971 2.43541 5.13768 2.30353L4.97676 1.83013C4.54315 1.97753 4.15258 2.17943 3.80694 2.43693L4.10566 2.83789ZM3.40207 3.63361C3.57612 3.32321 3.80982 3.05829 4.10566 2.83789L3.80694 2.43693C3.45647 2.69803 3.17531 3.01572 2.96596 3.38906L3.40207 3.63361ZM3.14646 4.67415C3.14646 4.279 3.23347 3.93428 3.40207 3.63361L2.96596 3.38906C2.75116 3.77211 2.64646 4.20261 2.64646 4.67415H3.14646ZM3.37904 5.73207C3.22818 5.45439 3.14646 5.10529 3.14646 4.67415H2.64646C2.64646 5.16749 2.74001 5.60323 2.93969 5.97077L3.37904 5.73207ZM4.03932 6.48107C3.75469 6.27036 3.5359 6.02079 3.37904 5.73207L2.93969 5.97077C3.13338 6.32726 3.40205 6.63141 3.74182 6.88294L4.03932 6.48107ZM5.06766 7.01725C4.67129 6.87512 4.32936 6.69579 4.03932 6.48107L3.74182 6.88294C4.07619 7.13046 4.46273 7.33151 4.89889 7.48791L5.06766 7.01725ZM6.38896 7.40671C5.91476 7.29302 5.47443 7.16311 5.06766 7.01725L4.89889 7.48791C5.32466 7.64058 5.78259 7.7755 6.27238 7.89293L6.38896 7.40671ZM6.58067 10.8566V7.64982H6.08067V10.8566H6.58067ZM4.93197 10.7749C5.40578 10.9832 5.87066 11.096 6.32489 11.1065L6.33645 10.6067C5.95814 10.5979 5.55762 10.5037 5.13317 10.3172L4.93197 10.7749ZM3.73486 9.96079C4.05642 10.2958 4.45727 10.5663 4.93197 10.7749L5.13317 10.3172C4.70961 10.131 4.36556 9.89584 4.09559 9.61456L3.73486 9.96079ZM2.62994 11.1926L4.07592 9.97919L3.75452 9.59617L2.30854 10.8095L2.62994 11.1926ZM4.32976 11.7529C3.69709 11.5461 3.13122 11.2319 2.63031 10.8099L2.30816 11.1923C2.85889 11.6562 3.48156 12.0017 4.17438 12.2282L4.32976 11.7529ZM6.33733 12.0945C5.63758 12.0759 4.96869 11.9618 4.32976 11.7529L4.17438 12.2282C4.86093 12.4526 5.57778 12.5745 6.32401 12.5944L6.33733 12.0945ZM6.58067 13.3845V12.3444H6.08067V13.3845H6.58067ZM7.21798 13.1345H6.33067V13.6345H7.21798V13.1345ZM5.13935 5.70535C5.45014 5.93571 5.82939 6.10413 6.26997 6.21624L6.39327 5.73168C6.00131 5.63194 5.68496 5.48738 5.43708 5.30366L5.13935 5.70535ZM4.61921 4.58724C4.61921 5.05619 4.78544 5.44303 5.13935 5.70535L5.43708 5.30366C5.23231 5.15188 5.11921 4.92722 5.11921 4.58724H4.61921ZM5.16728 3.43064C4.79453 3.69764 4.61921 4.09809 4.61921 4.58724H5.11921C5.11921 4.22895 5.23966 3.99383 5.45844 3.83711L5.16728 3.43064ZM6.30663 3.00956C5.88241 3.05218 5.50069 3.19181 5.16728 3.43064L5.45844 3.83711C5.71656 3.65222 6.01402 3.54147 6.35661 3.50705L6.30663 3.00956ZM6.58162 5.97396V3.25831H6.08162V5.97396H6.58162ZM7.46805 10.8565V7.88085H6.96805V10.8565H7.46805ZM8.15356 10.2433C7.92617 10.4628 7.61857 10.5895 7.2076 10.6067L7.22851 11.1063C7.73771 11.085 8.16953 10.9228 8.50081 10.603L8.15356 10.2433ZM8.49619 9.36869C8.49619 9.74287 8.37819 10.0265 8.15356 10.2433L8.50081 10.603C8.83486 10.2806 8.99619 9.8612 8.99619 9.36869H8.49619ZM8.16122 8.60844C8.37703 8.76953 8.49619 9.00867 8.49619 9.36869H8.99619C8.99619 8.88126 8.82506 8.48002 8.46029 8.20775L8.16122 8.60844ZM7.14453 8.1198C7.56229 8.24834 7.89904 8.41276 8.16122 8.60844L8.46029 8.20775C8.14188 7.97009 7.75017 7.78301 7.29157 7.64191L7.14453 8.1198Z" fill="#283964"/>
</svg>
