<svg width="37" height="37" viewBox="0 0 37 37" fill="none" xmlns="http://www.w3.org/2000/svg">
<path d="M35.4566 34.8404H33.8554V12.804C33.8554 11.7783 32.9749 10.9438 31.8929 10.9438H28.3139C27.2318 10.9438 26.3514 11.7784 26.3514 12.804V34.8404H22.2857V22.7882C22.2857 21.7625 21.4053 20.9281 20.3232 20.9281H16.7443C15.6621 20.9281 14.7818 21.7626 14.7818 22.7882V34.8404H10.716V28.5986C10.716 27.5729 9.83561 26.7385 8.75354 26.7385H5.17452C4.09239 26.7385 3.21203 27.573 3.21203 28.5986V34.8404H1.52447C1.12127 34.8404 0.794434 35.1502 0.794434 35.5324C0.794434 35.9145 1.12127 36.2243 1.52447 36.2243H35.4566C35.8598 36.2243 36.1866 35.9145 36.1866 35.5324C36.1866 35.1502 35.8598 34.8404 35.4566 34.8404Z" fill="#283964"/>
<path d="M33.6591 1.59567C33.6687 1.39744 33.6026 1.19586 33.4591 1.04448C33.3156 0.893096 33.1245 0.823288 32.9366 0.83353C32.9255 0.833022 32.9146 0.831787 32.9033 0.831787H28.7372C28.3569 0.831787 28.0486 1.157 28.0486 1.55819C28.0486 1.95938 28.3569 2.28459 28.7372 2.28459H31.3096L24.5023 9.46567L21.9351 6.75764C21.806 6.62144 21.6308 6.54488 21.4482 6.54488C21.2656 6.54488 21.0904 6.62144 20.9613 6.75764L8.58229 19.8162C8.31339 20.0998 8.31339 20.5598 8.58229 20.8435C8.71678 20.9853 8.89299 21.0562 9.0692 21.0562C9.24542 21.0562 9.4217 20.9853 9.55612 20.8434L21.4482 8.29849L24.0154 11.0065C24.2843 11.2902 24.7203 11.2902 24.9892 11.0065L32.2835 3.31195V5.76791C32.2835 6.16911 32.5918 6.49432 32.9721 6.49432C33.3524 6.49432 33.6607 6.16911 33.6607 5.76791V1.63083C33.6607 1.61899 33.6596 1.60744 33.6591 1.59567Z" fill="#283964" stroke="#283964" stroke-width="0.5"/>
<path d="M10.196 13.472L5.81009 8.65669C5.36338 8.161 5.05879 7.84234 4.89635 7.73611C5.97253 7.52367 6.82536 7.1342 7.47513 6.56769C7.92185 6.14281 8.22643 5.61171 8.34826 5.00979H10.46L10.9067 3.84137H8.38887C8.30765 3.11553 8.04368 2.49591 7.61727 2.00021H10.4397L10.8864 0.831787H1.24139L0.794678 2.00021H2.96735C3.96231 2.00021 4.7136 2.17725 5.24154 2.56672C5.64765 2.86768 5.89131 3.29256 5.99284 3.84137H1.28201L0.835288 5.00979H5.95223C5.8304 5.45238 5.54612 5.80644 5.11971 6.072C4.49025 6.46147 3.5359 6.65621 2.25666 6.65621H0.997731V8.03707C1.44445 8.03707 1.89117 8.161 2.29727 8.40884C2.66277 8.62128 3.00796 8.90454 3.33284 9.29401L6.9675 13.472H10.196Z" fill="#283964"/>
</svg>
