<svg viewBox="0 0 28 28" fill="none" xmlns="http://www.w3.org/2000/svg"><path d="M26.88 0H1.12C.5 0 0 .5 0 1.12v25.76C0 27.5.5 28 1.12 28h25.76c.62 0 1.12-.5 1.12-1.12V1.12C28 .5 27.5 0 26.88 0z" fill="#757779"/><path d="M14 7c1.902 0 2.14.007 2.885.042.746.035 1.253.152 1.7.325.462.178.851.42 1.24.808.356.35.632.773.808 1.24.172.446.29.954.325 1.7.033.746.042.983.042 2.885 0 1.902-.007 2.14-.042 2.885-.035.746-.153 1.253-.325 1.7-.176.467-.451.89-.808 1.24-.35.356-.773.632-1.24.808-.446.172-.954.29-1.7.325-.746.033-.983.042-2.885.042-1.902 0-2.14-.007-2.885-.042-.746-.035-1.253-.153-1.7-.325a3.423 3.423 0 01-1.24-.808 3.433 3.433 0 01-.808-1.24c-.173-.446-.29-.954-.325-1.7C7.009 16.14 7 15.902 7 14c0-1.902.007-2.14.042-2.885.035-.747.152-1.253.325-1.7.176-.467.451-.89.808-1.24.35-.357.773-.632 1.24-.808.447-.173.953-.29 1.7-.325C11.86 7.009 12.098 7 14 7zm0 3.5a3.5 3.5 0 100 7 3.5 3.5 0 000-7zm4.55-.175a.875.875 0 10-1.75 0 .875.875 0 001.75 0zM14 11.9a2.1 2.1 0 110 4.2 2.1 2.1 0 010-4.2z" fill="#fff"/></svg>