<svg viewBox="4 0 28 28" fill="none" xmlns="http://www.w3.org/2000/svg"><g filter="url(#filter0_d)"><path d="M29.375 0H6.625A2.633 2.633 0 004 2.625v22.75A2.633 2.633 0 006.625 28h22.75A2.633 2.633 0 0032 25.375V2.625A2.633 2.633 0 0029.375 0z" fill="#757779"/><path d="M12 20.5h2.7v-9.45H12v9.45zM12.395 9.305a1.35 1.35 0 101.91-1.91 1.35 1.35 0 00-1.91 1.91zM21.45 20.5h2.7v-6.075c0-1.864-1.358-3.375-3.037-3.375-.954 0-1.807.911-2.363 1.675V11.05h-2.7v9.45h2.7v-5.4a1.35 1.35 0 112.7 0v5.4z" fill="#fff"/></g><defs><filter id="filter0_d" x="0" y="0" width="36" height="36" filterUnits="userSpaceOnUse" color-interpolation-filters="sRGB"><feFlood flood-opacity="0" result="BackgroundImageFix"/><feColorMatrix in="SourceAlpha" values="0 0 0 0 0 0 0 0 0 0 0 0 0 0 0 0 0 0 127 0"/><feOffset dy="4"/><feGaussianBlur stdDeviation="2"/><feColorMatrix values="0 0 0 0 0 0 0 0 0 0 0 0 0 0 0 0 0 0 0.25 0"/><feBlend in2="BackgroundImageFix" result="effect1_dropShadow"/><feBlend in="SourceGraphic" in2="effect1_dropShadow" result="shape"/></filter></defs></svg>