<svg width="36" height="36" viewBox="0 0 36 36" fill="none" xmlns="http://www.w3.org/2000/svg">
<path fill-rule="evenodd" clip-rule="evenodd" d="M34.9611 13.1545C35.5337 13.1545 35.998 12.6903 35.998 12.1177V7.97013C35.998 7.55102 35.7457 7.17305 35.3585 7.01247L18.6992 0.0999179C18.4448 -0.00563671 18.1589 -0.00563671 17.9044 0.0999179L1.24519 7.01247C0.858021 7.17305 0.605713 7.55102 0.605713 7.97013V12.1177C0.605713 12.6903 1.06996 13.1545 1.6426 13.1545H3.43986V24.9059H3.09423C2.5216 24.9059 2.05735 25.3701 2.05735 25.9428V29.0534H1.6426C1.06996 29.0534 0.605713 29.5177 0.605713 30.0903V34.3761C0.605713 34.9487 1.06996 35.413 1.6426 35.413H34.9611C35.5337 35.413 35.998 34.9487 35.998 34.3761V30.0903C35.998 29.5177 35.5337 29.0534 34.9611 29.0534H34.5463V25.9428C34.5463 25.3701 34.0821 24.9059 33.5094 24.9059H33.1638V13.1545H34.9611ZM33.9243 31.1273V33.3394H2.67953V31.1273H33.9243ZM8.96995 29.0533V26.9795H4.13116V29.0533H8.96995ZM5.51367 24.9059V13.1545H7.58744V24.9059H5.51367ZM9.6612 24.9059H10.0068C10.5795 24.9059 11.0437 25.3701 11.0437 25.9428V29.0534H25.5601V25.9428C25.5601 25.3701 26.0243 24.9059 26.5969 24.9059H26.9426V13.1545H9.6612V24.9059ZM32.4726 26.9795V29.0533H27.6338V26.9795H32.4726ZM29.0163 13.1545V24.9059H31.0901V13.1545H29.0163Z" fill="#283964"/>
</svg>
