<svg width="40" height="38" viewBox="0 0 40 38" fill="none" xmlns="http://www.w3.org/2000/svg">
<path fill-rule="evenodd" clip-rule="evenodd" d="M20.0631 22.3775C13.9946 22.3775 9.07532 17.4581 9.07532 11.3897C9.08235 5.32413 13.9976 0.408515 20.0631 0.401855C26.1316 0.401855 31.0509 5.32117 31.0509 11.3897C31.0509 17.4581 26.1316 22.3775 20.0631 22.3775ZM20.0281 14.3196L23.8407 20.1798H21.0342L17.8746 15.0952C17.5922 14.6212 17.2921 14.2765 16.9744 14.018C16.6214 13.7164 16.2331 13.5655 15.8447 13.5655V11.8851H16.9391C18.0511 11.8851 18.8807 11.6481 19.4279 11.1741C19.7986 10.8509 20.0457 10.42 20.1516 9.88139H15.7035L16.0919 8.45944H20.1869C20.0987 7.79156 19.8868 7.27448 19.5338 6.90822C19.0749 6.43424 18.4218 6.21879 17.5569 6.21879H15.6682L16.0566 4.79684H24.4408L24.0525 6.21879H21.599C21.9697 6.82205 22.1991 7.57611 22.2697 8.45944H24.4585L24.0702 9.88139H22.2344C22.1285 10.6139 21.8638 11.2603 21.4754 11.7773C20.9106 12.4668 20.1693 12.9407 19.2338 13.1993C19.375 13.3285 19.6397 13.7164 20.0281 14.3196Z" fill="#283964"/>
<path fill-rule="evenodd" clip-rule="evenodd" d="M25.0582 28.8024C26.7396 28.8372 28.2676 29.5272 29.0641 30.6114L34.833 28.6166C36.6077 27.9632 38.7706 28.4456 39.7458 29.7119C39.9375 29.9603 39.8318 30.2748 39.5045 30.4298L26.3689 36.6479C26.3398 36.6619 26.3092 36.6743 26.2776 36.6848C24.9898 37.1174 23.5896 37.3409 22.1728 37.3403C21.5039 37.3406 20.8365 37.2903 20.1817 37.1901C20.1655 37.1874 20.1497 37.1848 20.1339 37.1814L11.0742 35.3205C10.4237 35.1858 9.72754 35.2416 9.13205 35.4761L7.61492 36.0705L7.59802 36.5192C7.58723 36.8111 7.26072 37.0435 6.86157 37.0435V37.7604H6.14441L6.1444 37.7607L6.13449 37.7604H1.38388C0.285103 37.7604 0.274505 36.6698 0.285652 36.3721L0.638415 26.9934C0.649563 26.6958 0.987942 26.4613 1.39464 26.4694L7.23447 26.5871C7.64117 26.5952 7.96157 26.8431 7.95043 27.1408L7.91662 28.0392C10.6884 26.9766 13.9956 26.9739 16.7702 28.0324L17.3121 28.2379C18.0619 28.5214 18.8893 28.6777 19.7326 28.6953L25.0582 28.8024Z" fill="#283964"/>
</svg>
