<svg viewBox="0 0 28 28" fill="none" xmlns="http://www.w3.org/2000/svg"><path d="M26.88 0H1.12C.5 0 0 .5 0 1.12v25.76C0 27.5.5 28 1.12 28h25.76c.62 0 1.12-.5 1.12-1.12V1.12C28 .5 27.5 0 26.88 0z" fill="#757779"/><path d="M19.57 12.384c0-.13 0-.264-.009-.392A6.208 6.208 0 0021 10.42a5.436 5.436 0 01-1.653.472 2.991 2.991 0 001.26-1.667c-.552.344-1.172.6-1.82.729A2.794 2.794 0 0016.692 9c-1.75 0-3.207 1.666-2.802 3.726a7.808 7.808 0 01-3.276-.92A8.242 8.242 0 017.976 9.56c-.25.447-.39.963-.39 1.527 0 .5.117.99.34 1.43.223.44.546.814.939 1.09a2.756 2.756 0 01-1.294-.384v.038c-.002.7.226 1.377.645 1.92a2.845 2.845 0 001.65 1.053 2.973 2.973 0 01-1.293.054c.361 1.2 1.42 2.073 2.68 2.1a5.564 5.564 0 01-3.56 1.293c-.238 0-.46-.01-.693-.038A7.824 7.824 0 0011.406 21c5.276 0 8.163-4.612 8.163-8.616z" fill="#fff"/></svg>