<svg viewBox="0 0 28 28" fill="none" xmlns="http://www.w3.org/2000/svg"><path d="M26.88 0H1.12C.5 0 0 .5 0 1.12v25.76C0 27.5.5 28 1.12 28h25.76c.62 0 1.12-.5 1.12-1.12V1.12C28 .5 27.5 0 26.88 0z" fill="#757779"/><path d="M21.666 9.836c-.184-.723-.727-1.292-1.415-1.485C19.003 8 14 8 14 8s-5.003 0-6.251.351c-.688.193-1.23.762-1.415 1.485C6 11.146 6 13.879 6 13.879s0 2.732.334 4.042a2.024 2.024 0 001.415 1.461c1.248.351 6.251.351 6.251.351s5.003 0 6.251-.35a2.024 2.024 0 001.415-1.462C22 16.611 22 13.88 22 13.88s0-2.733-.334-4.043zm-9.302 6.524v-4.963l4.181 2.482-4.181 2.48z" fill="#fff"/></svg>